<svg xmlns="http://www.w3.org/2000/svg" viewBox="0 0 900 500" fill="none" role="img" aria-label="Free Samples Worth Up To 200 euros — original illustration featuring gift box, shopping bag, beauty bottles, food packages and cleaning products">
  <defs>
    <linearGradient id="gbg" x1="0" y1="0" x2="1" y2="1"><stop offset="0%" stop-color="#f0f7ff"/><stop offset="100%" stop-color="#e8f4f8"/></linearGradient>
    <linearGradient id="gblue" x1="0" y1="0" x2="1" y2="1"><stop offset="0%" stop-color="#2563eb"/><stop offset="100%" stop-color="#06b6d4"/></linearGradient>
    <linearGradient id="ggreen" x1="0" y1="0" x2="1" y2="1"><stop offset="0%" stop-color="#22c55e"/><stop offset="100%" stop-color="#16a34a"/></linearGradient>
    <filter id="gs1"><feDropShadow dx="0" dy="2" stdDeviation="4" flood-opacity="0.08"/></filter>
    <filter id="gs2"><feDropShadow dx="0" dy="4" stdDeviation="8" flood-opacity="0.12"/></filter>
  </defs>
  <rect width="900" height="500" rx="24" fill="url(#gbg)"/>
  <circle cx="80" cy="60" r="40" fill="#2563eb" opacity="0.04"/>
  <circle cx="820" cy="440" r="60" fill="#06b6d4" opacity="0.04"/>
  <circle cx="700" cy="50" r="30" fill="#2563eb" opacity="0.03"/>
  <circle cx="150" cy="460" r="45" fill="#06b6d4" opacity="0.03"/>
  <g fill="#2563eb" opacity="0.12">
    <path d="M520 80l3-8 3 8-8-3 8-3z"/><path d="M650 110l2-5 2 5-5-2 5-2z"/>
    <path d="M580 50l2-6 2 6-6-2 6-2z"/><path d="M700 70l2-5 2 5-5-2 5-2z"/>
  </g>
  <g transform="translate(520,240)" filter="url(#gs1)">
    <rect x="0" y="20" width="60" height="48" rx="4" fill="#fff" stroke="#e5e7eb" stroke-width="1"/>
    <rect x="0" y="20" width="60" height="12" rx="4" fill="#2563eb" opacity="0.08"/>
    <path d="M30 0L40 20H20L30 0Z" fill="#2563eb" opacity="0.15"/>
    <path d="M30 20V68" stroke="#2563eb" opacity="0.12" stroke-width="1"/>
    <rect x="40" y="30" width="12" height="8" rx="2" fill="#2563eb" opacity="0.12"/>
    <circle cx="30" cy="40" r="4" fill="#22c55e" opacity="0.2"/>
  </g>
  <g transform="translate(660,260)" filter="url(#gs1)">
    <rect x="5" y="14" width="40" height="46" rx="6" fill="#fff" stroke="#e5e7eb" stroke-width="1"/>
    <path d="M14 14V8C14 4 16 2 20 2H30C34 2 36 4 36 8V14" stroke="#e5e7eb" stroke-width="1" fill="none"/>
    <rect x="12" y="30" width="26" height="6" rx="2" fill="#2563eb" opacity="0.08"/>
    <rect x="12" y="40" width="20" height="4" rx="2" fill="#2563eb" opacity="0.06"/>
  </g>
  <g transform="translate(460,320)" filter="url(#gs1)">
    <rect x="4" y="18" width="22" height="32" rx="6" fill="#dbeafe"/>
    <rect x="8" y="8" width="14" height="14" rx="3" fill="#fff" stroke="#bfdbfe" stroke-width="1"/>
    <path d="M10 10L12 7L18 7L20 10" fill="#bfdbfe"/>
    <rect x="10" y="26" width="10" height="3" rx="1.5" fill="#fff" opacity="0.5"/>
    <rect x="10" y="33" width="10" height="3" rx="1.5" fill="#fff" opacity="0.5"/>
  </g>
  <g transform="translate(740,290)" filter="url(#gs1)">
    <rect x="4" y="22" width="20" height="30" rx="8" fill="#fce7f3"/>
    <rect x="8" y="10" width="12" height="16" rx="4" fill="#fff" stroke="#fbcfe8" stroke-width="1"/>
    <circle cx="14" cy="16" r="3" fill="#fbcfe8"/>
    <rect x="8" y="30" width="12" height="3" rx="1.5" fill="#fff" opacity="0.5"/>
  </g>
  <g transform="translate(640,140)" filter="url(#gs1)">
    <rect x="0" y="6" width="44" height="58" rx="6" fill="#fff" stroke="#fef3c7" stroke-width="1.5"/>
    <rect x="4" y="10" width="36" height="24" rx="4" fill="#fef3c7"/>
    <rect x="8" y="38" width="28" height="3" rx="1.5" fill="#fef3c7"/>
    <rect x="8" y="44" width="20" height="3" rx="1.5" fill="#fef3c7"/>
  </g>
  <g transform="translate(480,130)" filter="url(#gs1)">
    <rect x="0" y="10" width="36" height="52" rx="6" fill="#fff" stroke="#fed7aa" stroke-width="1.5"/>
    <rect x="4" y="14" width="28" height="20" rx="4" fill="#fed7aa"/>
    <circle cx="18" cy="24" r="6" fill="#f97316" opacity="0.2"/>
    <rect x="8" y="38" width="20" height="3" rx="1.5" fill="#fed7aa"/>
    <path d="M30 24Q36 24 36 30Q36 36 30 36" stroke="#fed7aa" stroke-width="1.5" fill="none"/>
  </g>
  <g transform="translate(760,170)" filter="url(#gs1)">
    <rect x="0" y="8" width="48" height="50" rx="6" fill="#fff" stroke="#e0e7ff" stroke-width="1.5"/>
    <rect x="4" y="12" width="40" height="18" rx="4" fill="#e0e7ff"/>
    <path d="M14 20Q18 14 24 14Q30 14 34 20" stroke="#6366f1" opacity="0.3" stroke-width="1.5" fill="none"/>
    <circle cx="18" cy="18" r="2" fill="#6366f1" opacity="0.2"/><circle cx="30" cy="18" r="2" fill="#6366f1" opacity="0.2"/>
    <rect x="8" y="34" width="32" height="3" rx="1.5" fill="#e0e7ff"/>
  </g>
  <g transform="translate(580,370)" filter="url(#gs1)">
    <rect x="0" y="8" width="34" height="48" rx="8" fill="#fff" stroke="#dbeafe" stroke-width="1.5"/>
    <rect x="6" y="14" width="22" height="14" rx="4" fill="#dbeafe"/>
    <circle cx="10" cy="20" r="2" fill="#60a5fa" opacity="0.4"/><circle cx="16" cy="23" r="2" fill="#60a5fa" opacity="0.4"/><circle cx="22" cy="20" r="2" fill="#60a5fa" opacity="0.4"/>
  </g>
  <g transform="translate(700,370)" filter="url(#gs1)">
    <rect x="4" y="16" width="24" height="38" rx="8" fill="#fff" stroke="#d1fae5" stroke-width="1.5"/>
    <rect x="8" y="6" width="16" height="14" rx="6" fill="#d1fae5"/>
    <rect x="10" y="24" width="12" height="3" rx="1.5" fill="#d1fae5"/>
    <rect x="10" y="30" width="8" height="3" rx="1.5" fill="#d1fae5"/>
  </g>
  <g transform="translate(770,360)" filter="url(#gs1)">
    <rect x="5" y="16" width="20" height="28" rx="6" fill="#fff" stroke="#ffedd5" stroke-width="1.5"/>
    <rect x="8" y="8" width="14" height="12" rx="4" fill="#ffedd5"/>
    <rect x="8" y="26" width="14" height="3" rx="1.5" fill="#ffedd5"/>
  </g>
  <g transform="translate(470,410)">
    <circle cx="0" cy="0" r="28" fill="url(#ggreen)" opacity="0.15"/>
    <text x="0" y="4" text-anchor="middle" fill="#16a34a" font-size="11" font-weight="800" font-family="system-ui">100%</text>
    <text x="0" y="16" text-anchor="middle" fill="#16a34a" font-size="9" font-weight="700" font-family="system-ui">FREE</text>
  </g>
</svg>