<svg xmlns="http://www.w3.org/2000/svg" width="32" height="32" viewBox="0 0 32 32">
  <rect width="32" height="32" rx="8" fill="#2563eb"/>
  <path d="M16 6C12 6 9 9 9 13v2h14v-2c0-4-3-7-7-7z" fill="none" stroke="white" stroke-width="1.5"/>
  <path d="M9 15L23 15 22 24C22 25.1 21.1 26 20 26L12 26C10.9 26 10 25.1 10 24L9 15z" fill="white"/>
  <path d="M12 15L12 22C12 22.6 12.4 23 13 23 13.6 23 14 22.6 14 22L14 15" fill="#2563eb"/>
  <path d="M18 15L18 22C18 22.6 18.4 23 19 23 19.6 23 20 22.6 20 22L20 15" fill="#2563eb"/>
  <path d="M16 15L16 24" stroke="#2563eb" stroke-width="1"/>
  <rect x="14" y="8" width="4" height="4" rx="1" fill="white"/>
  <rect x="11" y="10" width="2" height="2" rx="1" fill="white"/>
  <rect x="19" y="10" width="2" height="2" rx="1" fill="white"/>
</svg>
